<svg xmlns="http://www.w3.org/2000/svg" viewBox="0 0 24 24" fill="none" stroke="currentColor" stroke-width="2" stroke-linecap="round" stroke-linejoin="round">
  <circle cx="12" cy="12" r="3"></circle>
  <circle cx="12" cy="12" r="7" stroke-dasharray="2 2"></circle>
  <path d="M8 12h-1.5a.5.5 0 01-.5-.5v-1a.5.5 0 01.5-.5h1.5"></path>
  <path d="M16 12h1.5a.5.5 0 00.5-.5v-1a.5.5 0 00-.5-.5H16"></path>
  <path d="M12 16v1.5a.5.5 0 00.5.5h1a.5.5 0 00.5-.5V16"></path>
  <path d="M12 8V6.5a.5.5 0 01.5-.5h1a.5.5 0 01.5.5V8"></path>
</svg> 